<svg width="120" height="26" viewBox="0 0 120 26" fill="none" xmlns="http://www.w3.org/2000/svg">
<path d="M120 0H0V26H120V0Z" fill="url(#paint0_linear_1_17)"/>
<path d="M120 0H0V26H120V0Z" fill="url(#paint1_linear_1_17)" fill-opacity="0.2"/>
<circle cx="106.5" cy="13.5" r="9.5" fill="white"/>
<path fill-rule="evenodd" clip-rule="evenodd" d="M13.5 23C18.7467 23 23 18.7467 23 13.5V13.5C23 13.1487 22.4708 13.097 22.3133 13.411C21.2455 15.5393 19.0433 17 16.5 17C12.9101 17 10 14.0899 10 10.5C10 7.95668 11.4607 5.75452 13.589 4.68671C13.903 4.52916 13.8513 4 13.5 4V4C8.25329 4 4 8.25329 4 13.5C4 18.7467 8.25329 23 13.5 23Z" fill="white"/>
<path d="M28.8098 4.58541C28.8697 4.40115 29.1303 4.40115 29.1902 4.58541L29.6286 5.93475C29.6554 6.01716 29.7322 6.07295 29.8189 6.07295H31.2376C31.4314 6.07295 31.5119 6.32087 31.3552 6.43475L30.2074 7.26869C30.1373 7.31962 30.1079 7.40989 30.1347 7.4923L30.5731 8.84164C30.633 9.0259 30.4221 9.17913 30.2654 9.06525L29.1176 8.23131C29.0475 8.18038 28.9525 8.18038 28.8824 8.23131L27.7346 9.06525C27.5779 9.17913 27.367 9.0259 27.4269 8.84164L27.8653 7.4923C27.8921 7.40989 27.8627 7.31962 27.7926 7.26869L26.6448 6.43475C26.4881 6.32087 26.5686 6.07295 26.7624 6.07295H28.1811C28.2678 6.07295 28.3446 6.01716 28.3714 5.93475L28.8098 4.58541Z" fill="white"/>
<path d="M39.8098 13.5854C39.8697 13.4011 40.1303 13.4011 40.1902 13.5854L40.4041 14.2438C40.4309 14.3262 40.5077 14.382 40.5943 14.382H41.2866C41.4803 14.382 41.5609 14.6299 41.4041 14.7438L40.8441 15.1507C40.774 15.2016 40.7447 15.2919 40.7714 15.3743L40.9854 16.0326C41.0452 16.2169 40.8343 16.3701 40.6776 16.2562L40.1176 15.8493C40.0475 15.7984 39.9525 15.7984 39.8824 15.8493L39.3224 16.2562C39.1657 16.3701 38.9548 16.2169 39.0146 16.0326L39.2286 15.3743C39.2553 15.2919 39.226 15.2016 39.1559 15.1507L38.5959 14.7438C38.4391 14.6299 38.5197 14.382 38.7134 14.382H39.4057C39.4923 14.382 39.5691 14.3262 39.5959 14.2438L39.8098 13.5854Z" fill="white"/>
<circle cx="47" cy="7" r="1" fill="white"/>
<circle cx="90" cy="6" r="2" fill="white"/>
<circle cx="81" cy="10" r="1" fill="white"/>
<circle cx="32.5" cy="19.5" r="0.5" fill="white"/>
<circle cx="35.5" cy="3.5" r="0.5" fill="white"/>
<circle cx="64.5" cy="12.5" r="0.5" fill="white"/>
<circle cx="53.5" cy="17.5" r="0.5" fill="white"/>
<defs>
<linearGradient id="paint0_linear_1_17" x1="-2.5" y1="16" x2="120" y2="1.50001" gradientUnits="userSpaceOnUse">
<stop offset="0.0965671" stop-color="#0C1E41"/>
<stop offset="0.372625" stop-color="#4882DE"/>
<stop offset="0.627849" stop-color="#C0F7FF"/>
<stop offset="1" stop-color="#99D4FF"/>
</linearGradient>
<linearGradient id="paint1_linear_1_17" x1="60" y1="0" x2="60" y2="27" gradientUnits="userSpaceOnUse">
<stop/>
<stop offset="0.50805" stop-color="white" stop-opacity="0"/>
<stop offset="1"/>
</linearGradient>
</defs>
</svg>
